<?xml version="1.0" encoding="UTF-8" standalone="no"?>
<!-- Created with Inkscape (http://www.inkscape.org/) -->

<svg
   xmlns:dc="http://purl.org/dc/elements/1.1/"
   xmlns:cc="http://creativecommons.org/ns#"
   xmlns:rdf="http://www.w3.org/1999/02/22-rdf-syntax-ns#"
   xmlns:svg="http://www.w3.org/2000/svg"
   xmlns="http://www.w3.org/2000/svg"
   xmlns:xlink="http://www.w3.org/1999/xlink"
   xmlns:sodipodi="http://sodipodi.sourceforge.net/DTD/sodipodi-0.dtd"
   xmlns:inkscape="http://www.inkscape.org/namespaces/inkscape"
   width="1000"
   height="1000"
   id="svg2993"
   version="1.1"
   inkscape:version="0.48.4 r9939"
   sodipodi:docname="atlas.svg"
   inkscape:export-filename="/home/seth/prj/hasi/img/icos/atlas.png"
   inkscape:export-xdpi="90"
   inkscape:export-ydpi="90">
  <sodipodi:namedview
     id="base"
     pagecolor="#ffffff"
     bordercolor="#666666"
     borderopacity="1.0"
     inkscape:pageopacity="0.0"
     inkscape:pageshadow="2"
     inkscape:zoom="0.957"
     inkscape:cx="500"
     inkscape:cy="249.2163"
     inkscape:document-units="px"
     inkscape:current-layer="g6545"
     showgrid="true"
     inkscape:window-width="1920"
     inkscape:window-height="1182"
     inkscape:window-x="0"
     inkscape:window-y="18"
     inkscape:window-maximized="0">
    <inkscape:grid
       type="xygrid"
       id="grid3001"
       empspacing="5"
       visible="true"
       enabled="true"
       snapvisiblegridlinesonly="true" />
  </sodipodi:namedview>
  <defs
     id="defs2995">
    <linearGradient
       inkscape:collect="always"
       id="linearGradient9629">
      <stop
         style="stop-color:#000000;stop-opacity:0.749"
         offset="0"
         id="stop9631" />
      <stop
         style="stop-color:#000000;stop-opacity:0;"
         offset="1"
         id="stop9633" />
    </linearGradient>
    <linearGradient
       id="linearGradient12832"
       inkscape:collect="always">
      <stop
         id="stop12834"
         offset="0"
         style="stop-color:#000000;stop-opacity:0.655" />
      <stop
         id="stop12836"
         offset="1"
         style="stop-color:#000000;stop-opacity:0;" />
    </linearGradient>
    <linearGradient
       id="linearGradient4969">
      <stop
         id="stop4971"
         offset="0"
         style="stop-color:#000000;stop-opacity:1;" />
      <stop
         id="stop4973"
         offset="1"
         style="stop-color:#000000;stop-opacity:0;" />
    </linearGradient>
    <clipPath
       clipPathUnits="userSpaceOnUse"
       id="clipPath3842">
      <rect
         style="opacity:0.4;fill:#15ff00;fill-opacity:1;fill-rule:evenodd;stroke:#000000;stroke-opacity:1"
         id="rect3844"
         width="1000"
         height="1000"
         x="0"
         y="-1.0672358"
         rx="85.714287"
         ry="85.714287" />
    </clipPath>
    <clipPath
       clipPathUnits="userSpaceOnUse"
       id="clipPath3931">
      <rect
         ry="85.714287"
         rx="85.714287"
         y="0"
         x="0"
         height="1000"
         width="1000"
         id="rect3933"
         style="opacity:0.63779524;fill:#b8dbff;fill-opacity:1;fill-rule:evenodd;stroke:none" />
    </clipPath>
    <clipPath
       clipPathUnits="userSpaceOnUse"
       id="clipPath3931-2">
      <rect
         ry="85.714287"
         rx="85.714287"
         y="0"
         x="0"
         height="1000"
         width="1000"
         id="rect3933-4"
         style="opacity:0.63779524;fill:#b8dbff;fill-opacity:1;fill-rule:evenodd;stroke:none" />
    </clipPath>
    <linearGradient
       gradientUnits="userSpaceOnUse"
       y2="881.0014"
       x2="841.0014"
       y1="520"
       x1="480"
       id="linearGradient12838"
       xlink:href="#linearGradient12832"
       inkscape:collect="always" />
    <clipPath
       id="clipPath8698"
       clipPathUnits="userSpaceOnUse">
      <path
         inkscape:connector-curvature="0"
         id="path8700"
         d="m 500.15625,162.25 c -72.28737,0 -133.04639,107.52947 -150.3125,253.09375 -115.53337,90.22369 -176.00424,197.93221 -138.53125,259.75 25.1398,41.47219 88.97667,53.39685 168.5625,38.4375 28.46309,75.81715 71.78261,124.21875 120.28125,124.21875 72.28738,0 133.01514,-107.52946 150.28125,-253.09375 115.53337,-90.22369 176.00425,-197.9322 138.53125,-259.75 C 763.8283,283.43299 699.99498,271.5076 620.40625,286.46875 591.94315,210.6516 548.6549,162.25 500.15625,162.25 z"
         style="fill:none;stroke:#000000;stroke-width:50;stroke-miterlimit:4;stroke-opacity:1" />
    </clipPath>
    <linearGradient
       inkscape:collect="always"
       xlink:href="#linearGradient9629"
       id="linearGradient9635"
       x1="390"
       y1="410"
       x2="890"
       y2="910"
       gradientUnits="userSpaceOnUse"
       gradientTransform="translate(0,20)" />
  </defs>
  <metadata
     id="metadata2998">
    <rdf:RDF>
      <cc:Work
         rdf:about="">
        <dc:format>image/svg+xml</dc:format>
        <dc:type
           rdf:resource="http://purl.org/dc/dcmitype/StillImage" />
        <dc:title></dc:title>
      </cc:Work>
    </rdf:RDF>
  </metadata>
  <g
     inkscape:groupmode="layer"
     id="layer2"
     inkscape:label="Bottom wedge"
     style="display:inline"
     sodipodi:insensitive="true">
    <path
       style="fill:#f39c12;fill-opacity:1;stroke:none"
       d="m 1000,0 0,1000 -1000,0 z"
       id="path3008"
       inkscape:connector-curvature="0"
       clip-path="url(#clipPath3931)" />
  </g>
  <g
     sodipodi:insensitive="true"
     style="display:inline"
     inkscape:label="Bottom Box"
     id="g3927"
     inkscape:groupmode="layer" />
  <g
     inkscape:label="Top wedge"
     inkscape:groupmode="layer"
     id="layer1"
     transform="translate(0,-52.362183)"
     style="display:inline"
     sodipodi:insensitive="true">
    <path
       sodipodi:type="arc"
       id="path3003"
       style="fill:#000000;stroke:none"
       sodipodi:cx="0"
       sodipodi:cy="52.362183"
       sodipodi:rx="1.5"
       sodipodi:ry="1.5"
       d="m 1.5,52.362183 a 1.5,1.5 0 1 1 -3,0 1.5,1.5 0 1 1 3,0 z" />
    <path
       style="fill:#f1c40f;fill-opacity:1;stroke:none;display:inline"
       d="M 85.71875,0 C 38.233035,0 0,38.233035 0,85.71875 l 0,828.5625 c 0,23.74286 9.5696427,45.16339 25.0625,60.65625 L 974.9375,25.0625 C 959.44464,9.5696427 938.02411,0 914.28125,0 L 85.71875,0 z"
       transform="translate(0,52.362183)"
       id="path3005"
       inkscape:connector-curvature="0" />
  </g>
  <g
     sodipodi:insensitive="true"
     inkscape:groupmode="layer"
     id="layer3"
     inkscape:label="Top Box"
     style="display:inline" />
  <g
     inkscape:groupmode="layer"
     id="g6545"
     inkscape:label="Shadow"
     style="display:inline">
    <path
       style="font-size:medium;font-style:normal;font-variant:normal;font-weight:normal;font-stretch:normal;text-indent:0;text-align:start;text-decoration:none;line-height:normal;letter-spacing:normal;word-spacing:normal;text-transform:none;direction:ltr;block-progression:tb;writing-mode:lr-tb;text-anchor:start;baseline-shift:baseline;color:#000000;fill:url(#linearGradient9635);fill-opacity:1;stroke:none;stroke-width:50;marker:none;visibility:visible;display:inline;overflow:visible;enable-background:accumulate;font-family:Sans;-inkscape-font-specification:Sans"
       d="M 516.59375 150.46875 C 469.07631 151.54345 429.90306 186.33824 401.53125 234.8125 C 374.03556 281.78987 354.69325 344.21332 345.1875 415.375 C 289.24884 460.3978 245.86381 509.31442 219.9375 557.1875 C 192.76378 607.36392 183.49305 659.77047 208.65625 701.28125 C 213.53719 709.33315 219.4686 716.42533 226.25 722.65625 C 228.0917 724.65328 230.00535 726.59622 232 728.4375 C 233.87646 730.47949 235.83905 732.43282 237.875 734.3125 C 239.77217 736.37704 241.75236 738.35137 243.8125 740.25 C 245.69963 742.29758 247.67102 744.27229 249.71875 746.15625 C 251.58777 748.17836 253.53655 750.13788 255.5625 752 C 257.40842 753.99356 259.34508 755.9122 261.34375 757.75 C 263.22403 759.7798 265.14893 761.75672 267.1875 763.625 C 268.97995 765.55221 270.8143 767.40645 272.75 769.1875 C 274.57445 771.15612 276.46397 773.02715 278.4375 774.84375 C 280.24968 776.79828 282.13455 778.69538 284.09375 780.5 C 285.8612 782.40459 287.68651 784.26914 289.59375 786.03125 C 291.34561 787.92367 293.17278 789.74795 295.0625 791.5 C 296.8742 793.46274 298.75916 795.34409 300.71875 797.15625 C 302.51591 799.09672 304.37047 800.95716 306.3125 802.75 C 308.05498 804.62683 309.87167 806.4491 311.75 808.1875 C 313.52362 810.10004 315.36674 811.94979 317.28125 813.71875 C 319.01325 815.58262 320.79019 817.36651 322.65625 819.09375 C 324.41599 820.98966 326.25795 822.80781 328.15625 824.5625 C 329.85941 826.39292 331.57363 828.17652 333.40625 829.875 C 335.15596 831.75922 336.98838 833.56782 338.875 835.3125 C 340.52468 837.08306 342.22897 838.82181 344 840.46875 C 345.71575 842.31843 347.49606 844.09718 349.34375 845.8125 C 351.06902 847.66877 352.86047 849.46678 354.71875 851.1875 C 356.39951 852.98899 358.16234 854.73288 359.96875 856.40625 C 361.58959 858.14277 363.26226 859.8201 365 861.4375 C 366.71731 863.28557 368.46335 865.06751 370.3125 866.78125 C 371.93853 868.52252 373.60016 870.19104 375.34375 871.8125 C 376.99016 873.57984 378.70144 875.26207 380.46875 876.90625 C 382.14554 878.70544 383.8542 880.45348 385.65625 882.125 C 387.28904 883.87041 388.96774 885.53142 390.71875 887.15625 C 392.29149 888.83675 393.91126 890.46259 395.59375 892.03125 C 397.24394 893.80078 398.9473 895.54155 400.71875 897.1875 C 402.27729 898.85058 403.89637 900.47784 405.5625 902.03125 C 407.19246 903.77571 408.87702 905.4696 410.625 907.09375 C 412.17418 908.74537 413.78214 910.33163 415.4375 911.875 C 417.01024 913.5555 418.63001 915.21259 420.3125 916.78125 C 421.9013 918.4774 423.54938 920.10536 425.25 921.6875 C 426.67918 923.20919 428.13667 924.69534 429.65625 926.125 C 431.32141 927.9166 433.05455 929.6472 434.84375 931.3125 C 436.37486 932.94052 437.95928 934.53991 439.59375 936.0625 C 441.12486 937.69052 442.67803 939.25866 444.3125 940.78125 C 445.82413 942.38713 447.38772 943.96554 449 945.46875 C 450.51163 947.07463 452.07522 948.62179 453.6875 950.125 C 455.05308 951.57511 456.45836 952.97744 457.90625 954.34375 C 459.53221 956.08995 461.1935 957.78024 462.9375 959.40625 C 464.42492 960.98283 465.94664 962.5226 467.53125 964 C 469.00518 965.56029 470.52455 967.09946 472.09375 968.5625 C 473.55823 970.11142 475.06657 971.64075 476.625 973.09375 C 478.08002 974.6313 479.57734 976.15079 481.125 977.59375 C 482.46398 979.00743 483.83249 980.41638 485.25 981.75 C 486.78854 983.38863 488.38811 984.96803 490.03125 986.5 C 491.46687 988.0143 492.91189 989.48385 494.4375 990.90625 C 495.71683 992.25456 497.02409 993.5684 498.375 994.84375 C 499.77286 996.33405 501.23419 997.75414 502.71875 999.15625 C 502.98629 999.44136 503.26109 999.71636 503.53125 1000 L 914.28125 1000 C 961.76696 1000 1000 961.76696 1000 914.28125 L 1000 492.15625 C 998.93069 491.06114 997.84501 489.98453 996.71875 488.9375 C 995.16095 487.27442 993.54023 485.67841 991.875 484.125 C 990.2296 482.36135 988.51575 480.6408 986.75 479 C 985.17201 477.31459 983.53201 475.66658 981.84375 474.09375 C 980.22059 472.35342 978.55288 470.65198 976.8125 469.03125 C 975.15959 467.25828 973.43072 465.55515 971.65625 463.90625 C 970.03073 462.16466 968.36795 460.46548 966.625 458.84375 C 964.94283 457.0378 963.18316 455.30233 961.375 453.625 C 959.71406 451.84627 958.00213 450.09117 956.21875 448.4375 C 954.54806 446.64756 952.79463 444.91335 951 443.25 C 949.37012 441.50298 947.68551 439.81397 945.9375 438.1875 C 944.25637 436.37591 942.49515 434.65134 940.6875 432.96875 C 938.93705 431.08074 937.13763 429.24805 935.25 427.5 C 933.53591 425.65945 931.75112 423.86324 929.90625 422.15625 C 928.24724 420.37484 926.53165 418.65627 924.75 417 C 922.97532 415.0842 921.10328 413.24056 919.1875 411.46875 C 917.50431 409.65894 915.77836 407.89956 913.96875 406.21875 C 912.18015 404.2862 910.30707 402.41115 908.375 400.625 C 906.66802 398.78719 904.89969 397.01746 903.0625 395.3125 C 901.23476 393.3359 899.3214 391.41734 897.34375 389.59375 C 895.59332 387.71219 893.76192 385.89838 891.875 384.15625 C 890.13864 382.28429 888.34002 380.4843 886.46875 378.75 C 884.69226 376.82623 882.85601 374.96648 880.9375 373.1875 C 879.13282 371.23062 877.23271 369.36975 875.28125 367.5625 C 873.43049 365.55651 871.5049 363.59872 869.5 361.75 C 867.69059 359.7967 865.79975 357.89738 863.84375 356.09375 C 862.01991 354.12313 860.09792 352.22467 858.125 350.40625 C 856.29168 348.42446 854.39029 346.48417 852.40625 344.65625 C 850.56327 342.66317 848.62036 340.74377 846.625 338.90625 C 844.82321 336.95681 842.94764 335.0819 841 333.28125 C 839.11279 331.22845 837.14195 329.26364 835.09375 327.375 C 833.21632 325.33701 831.25507 323.3759 829.21875 321.5 C 827.32126 319.44103 825.34089 317.45598 823.28125 315.5625 C 821.40642 313.53042 819.43918 311.58946 817.40625 309.71875 C 800.15427 290.9827 775.99134 279.13475 749.125 273.3125 C 728.5551 268.85476 705.99071 267.61763 681.9375 269.125 C 681.09961 268.28341 680.25801 267.44504 679.40625 266.625 C 677.38727 264.49389 675.32231 262.44019 673.21875 260.4375 C 671.4233 258.56109 669.61166 256.74414 667.75 254.96875 C 666.06696 253.20623 664.33519 251.51768 662.59375 249.84375 C 660.64295 247.78461 658.65483 245.78316 656.625 243.84375 C 654.87469 242.0061 653.06363 240.24169 651.25 238.5 C 649.38627 236.53276 647.46718 234.63939 645.53125 232.78125 C 643.65726 230.80318 641.72823 228.89899 639.78125 227.03125 C 637.897 225.04235 635.95803 223.12734 634 221.25 C 632.10333 219.248 630.15891 217.32644 628.1875 215.4375 C 626.2879 213.4324 624.34957 211.51668 622.375 209.625 C 620.46513 207.60907 618.48564 205.65127 616.5 203.75 C 616.34812 203.58969 616.18362 203.44086 616.03125 203.28125 C 615.87067 203.12873 615.72356 202.96424 615.5625 202.8125 C 613.78497 200.96457 611.99826 199.12399 610.15625 197.375 C 608.37133 195.50483 606.53808 193.70783 604.6875 191.9375 C 581.03051 166.96672 551.44098 150.46875 518.875 150.46875 C 518.11657 150.46875 517.348 150.45165 516.59375 150.46875 z "
       id="path8783" />
  </g>
  <g
     style="display:inline"
     inkscape:label="Atlas"
     id="layer4"
     inkscape:groupmode="layer"
     sodipodi:insensitive="true">
    <path
       d="m 302.85715,243.07646 a 101.42857,220.71428 0 1 1 -202.85715,0 101.42857,220.71428 0 1 1 202.85715,0 z"
       sodipodi:ry="220.71428"
       sodipodi:rx="101.42857"
       sodipodi:cy="243.07646"
       sodipodi:cx="201.42857"
       id="path3755"
       style="fill:none;stroke:#ffffff;stroke-width:32.67346954;stroke-miterlimit:4;stroke-opacity:1;stroke-dasharray:none"
       sodipodi:type="arc"
       transform="matrix(1.5302936,0,0,1.5302936,191.90497,128.02165)" />
    <path
       transform="matrix(0.79327239,1.3086319,-1.3086319,0.79327239,658.45972,43.578309)"
       sodipodi:type="arc"
       style="fill:none;stroke:#ffffff;stroke-width:32.67346954;stroke-miterlimit:4;stroke-opacity:1;stroke-dasharray:none"
       id="path3757"
       sodipodi:cx="201.42857"
       sodipodi:cy="243.07646"
       sodipodi:rx="101.42857"
       sodipodi:ry="220.71428"
       d="m 302.85715,243.07646 a 101.42857,220.71428 0 1 1 -202.85715,0 101.42857,220.71428 0 1 1 202.85715,0 z" />
  </g>
</svg>
