<?xml version="1.0" encoding="UTF-8" standalone="no"?>
<!-- Created with Inkscape (http://www.inkscape.org/) -->

<svg
   xmlns:dc="http://purl.org/dc/elements/1.1/"
   xmlns:cc="http://creativecommons.org/ns#"
   xmlns:rdf="http://www.w3.org/1999/02/22-rdf-syntax-ns#"
   xmlns:svg="http://www.w3.org/2000/svg"
   xmlns="http://www.w3.org/2000/svg"
   xmlns:xlink="http://www.w3.org/1999/xlink"
   xmlns:sodipodi="http://sodipodi.sourceforge.net/DTD/sodipodi-0.dtd"
   xmlns:inkscape="http://www.inkscape.org/namespaces/inkscape"
   width="1000"
   height="1000"
   id="svg2"
   version="1.1"
   inkscape:version="0.48.4 r9939"
   sodipodi:docname="folder.svg"
   enable-background="new"
   inkscape:export-filename="/home/seth/prj/hasi/img/icos/folder.png"
   inkscape:export-xdpi="90"
   inkscape:export-ydpi="90">
  <sodipodi:namedview
     id="base"
     pagecolor="#ffffff"
     bordercolor="#666666"
     borderopacity="1.0"
     inkscape:pageopacity="0.0"
     inkscape:pageshadow="2"
     inkscape:zoom="0.938"
     inkscape:cx="307.5693"
     inkscape:cy="486.80756"
     inkscape:document-units="px"
     inkscape:current-layer="g4625"
     showgrid="false"
     inkscape:window-width="1920"
     inkscape:window-height="1182"
     inkscape:window-x="0"
     inkscape:window-y="18"
     inkscape:window-maximized="0"
     inkscape:snap-global="false">
    <inkscape:grid
       snapvisiblegridlinesonly="true"
       enabled="true"
       visible="true"
       empspacing="5"
       id="grid2985"
       type="xygrid" />
  </sodipodi:namedview>
  <defs
     id="defs4">
    <linearGradient
       inkscape:collect="always"
       id="linearGradient14142">
      <stop
         style="stop-color:#000000;stop-opacity:0.75"
         offset="0"
         id="stop14144" />
      <stop
         style="stop-color:#000000;stop-opacity:0;"
         offset="1"
         id="stop14146" />
    </linearGradient>
    <linearGradient
       id="linearGradient5508">
      <stop
         style="stop-color:#000000;stop-opacity:1;"
         offset="0"
         id="stop5510" />
      <stop
         style="stop-color:#4b7ddb;stop-opacity:0;"
         offset="1"
         id="stop5512" />
    </linearGradient>
    <marker
       style="overflow:visible"
       id="Arrow1Lstart"
       refX="0.0"
       refY="0.0"
       orient="auto"
       inkscape:stockid="Arrow1Lstart">
      <path
         transform="scale(0.8) translate(12.5,0)"
         style="fill-rule:evenodd;stroke:#000000;stroke-width:1.0pt"
         d="M 0.0,0.0 L 5.0,-5.0 L -12.5,0.0 L 5.0,5.0 L 0.0,0.0 z "
         id="path3899" />
    </marker>
    <linearGradient
       id="linearGradient3858">
      <stop
         style="stop-color:#4b75db;stop-opacity:0.49803922;"
         offset="0"
         id="stop3870" />
      <stop
         id="stop3872"
         offset="1"
         style="stop-color:#4bbbdb;stop-opacity:0.24705882;" />
    </linearGradient>
    <linearGradient
       inkscape:collect="always"
       xlink:href="#linearGradient14142"
       id="linearGradient14148"
       x1="316.00851"
       y1="459.82944"
       x2="774.13757"
       y2="917.9585"
       gradientUnits="userSpaceOnUse" />
  </defs>
  <metadata
     id="metadata7">
    <rdf:RDF>
      <cc:Work
         rdf:about="">
        <dc:format>image/svg+xml</dc:format>
        <dc:type
           rdf:resource="http://purl.org/dc/dcmitype/StillImage" />
        <dc:title />
      </cc:Work>
    </rdf:RDF>
  </metadata>
  <g
     style="display:inline"
     transform="translate(0,-52.362183)"
     id="layer1"
     inkscape:groupmode="layer"
     inkscape:label="Box"
     sodipodi:insensitive="true">
    <rect
       ry="85.714287"
       rx="85.714287"
       y="52.362183"
       x="0"
       height="999.99994"
       width="1000"
       id="rect3795"
       style="fill:#3498db;fill-opacity:1;fill-rule:evenodd;stroke:none" />
  </g>
  <g
     inkscape:label="Wedge"
     inkscape:groupmode="layer"
     id="g4595"
     transform="translate(0,-52.362183)"
     style="display:inline"
     sodipodi:insensitive="true">
    <path
       inkscape:connector-curvature="0"
       id="rect4597"
       d="M 974.91072,77.451478 25.089286,1027.2729 c 15.492857,15.4928 36.882139,25.0892 60.624999,25.0892 l 828.571435,0 c 47.48571,0 85.71428,-38.2285 85.71428,-85.7142 l 0,-828.57143 c 0,-23.74285 -9.59643,-45.132142 -25.08928,-60.624992 z"
       style="fill:#2980b9;fill-opacity:1;fill-rule:evenodd;stroke:none" />
  </g>
  <g
     inkscape:groupmode="layer"
     id="g4625"
     inkscape:label="Shadow"
     style="display:inline">
    <path
       style="opacity:1;fill:url(#linearGradient14148);fill-opacity:1;stroke:none"
       d="m 235.71429,280.00001 -57.14286,57.14285 c 0.35734,123.91365 -0.71331,248.42 0.53572,371.96429 L 470,1000 l 444.28572,0 C 961.77143,1000 1000,961.77143 1000,914.28572 L 1000,530 807.14286,337.14286 c -93.47369,-0.47406 -187.73334,0.94938 -280.71429,-0.71428 l -53.57143,-53.57143 c -13.51568,0.4234 -31.01333,-0.80209 -42.32143,0.53571 l 53.75,53.75 c -13.07399,1.95408 -24.44074,-0.21343 -31.87499,-11.875 l -45.26786,-45.26785 -171.42857,0 z"
       id="path4668"
       inkscape:connector-curvature="0" />
  </g>
  <g
     style="display:inline"
     inkscape:label="Icon"
     id="layer2"
     inkscape:groupmode="layer"
     sodipodi:insensitive="true">
    <path
       inkscape:connector-curvature="0"
       id="path3800"
       d="m 235.71429,280.00003 -57.14286,57.14285 0,371.42855 14.28571,14.28572 614.28572,0 14.28571,-14.28572 0,-357.14283 -14.28571,-14.28572 -57.14285,0 -57.14286,0 -57.14286,0 -57.14286,0 -57.14286,0 -57.14286,0 -57.14285,-57.14285 -28.57143,0 -71.42857,0 -71.42857,0 z M 430,282.85718 l 42.85714,42.85714 42.85715,0 -42.85715,-42.85714 -42.85714,0 z"
       style="fill:#ffffff;fill-opacity:1;stroke:none" />
  </g>
</svg>
