<?xml version="1.0" encoding="UTF-8" standalone="no"?>
<!-- Created with Inkscape (http://www.inkscape.org/) -->

<svg
   xmlns:dc="http://purl.org/dc/elements/1.1/"
   xmlns:cc="http://creativecommons.org/ns#"
   xmlns:rdf="http://www.w3.org/1999/02/22-rdf-syntax-ns#"
   xmlns:svg="http://www.w3.org/2000/svg"
   xmlns="http://www.w3.org/2000/svg"
   xmlns:xlink="http://www.w3.org/1999/xlink"
   xmlns:sodipodi="http://sodipodi.sourceforge.net/DTD/sodipodi-0.dtd"
   xmlns:inkscape="http://www.inkscape.org/namespaces/inkscape"
   width="1000"
   height="1000"
   id="svg2993"
   version="1.1"
   inkscape:version="0.48.4 r9939"
   sodipodi:docname="key.svg">
  <sodipodi:namedview
     id="base"
     pagecolor="#ffffff"
     bordercolor="#666666"
     borderopacity="1.0"
     inkscape:pageopacity="0.0"
     inkscape:pageshadow="2"
     inkscape:zoom="0.937"
     inkscape:cx="307.36393"
     inkscape:cy="500"
     inkscape:document-units="px"
     inkscape:current-layer="g7975"
     showgrid="false"
     inkscape:window-width="1920"
     inkscape:window-height="1182"
     inkscape:window-x="0"
     inkscape:window-y="18"
     inkscape:window-maximized="0">
    <inkscape:grid
       type="xygrid"
       id="grid3001"
       empspacing="5"
       visible="true"
       enabled="true"
       snapvisiblegridlinesonly="true" />
  </sodipodi:namedview>
  <defs
     id="defs2995">
    <linearGradient
       inkscape:collect="always"
       id="linearGradient10576">
      <stop
         style="stop-color:#000000;stop-opacity:1;"
         offset="0"
         id="stop10578" />
      <stop
         style="stop-color:#000000;stop-opacity:0;"
         offset="1"
         id="stop10580" />
    </linearGradient>
    <linearGradient
       id="linearGradient4977"
       inkscape:collect="always">
      <stop
         id="stop4979"
         offset="0"
         style="stop-color:#000000;stop-opacity:0.99606299" />
      <stop
         id="stop4981"
         offset="1"
         style="stop-color:#000000;stop-opacity:0" />
    </linearGradient>
    <linearGradient
       id="linearGradient4969">
      <stop
         id="stop4971"
         offset="0"
         style="stop-color:#000000;stop-opacity:1;" />
      <stop
         id="stop4973"
         offset="1"
         style="stop-color:#000000;stop-opacity:0;" />
    </linearGradient>
    <clipPath
       clipPathUnits="userSpaceOnUse"
       id="clipPath3842">
      <rect
         style="opacity:0.4;fill:#15ff00;fill-opacity:1;fill-rule:evenodd;stroke:#000000;stroke-opacity:1"
         id="rect3844"
         width="1000"
         height="1000"
         x="0"
         y="-1.0672358"
         rx="85.714287"
         ry="85.714287" />
    </clipPath>
    <clipPath
       clipPathUnits="userSpaceOnUse"
       id="clipPath3931">
      <rect
         ry="85.714287"
         rx="85.714287"
         y="0"
         x="0"
         height="1000"
         width="1000"
         id="rect3933"
         style="opacity:0.63779524;fill:#b8dbff;fill-opacity:1;fill-rule:evenodd;stroke:none" />
    </clipPath>
    <clipPath
       clipPathUnits="userSpaceOnUse"
       id="clipPath3931-2">
      <rect
         ry="85.714287"
         rx="85.714287"
         y="0"
         x="0"
         height="1000"
         width="1000"
         id="rect3933-4"
         style="opacity:0.63779524;fill:#b8dbff;fill-opacity:1;fill-rule:evenodd;stroke:none" />
    </clipPath>
    <linearGradient
       gradientUnits="userSpaceOnUse"
       y2="831.25409"
       x2="936.03479"
       y1="717.09839"
       x1="510"
       id="linearGradient4983"
       xlink:href="#linearGradient4977"
       inkscape:collect="always" />
    <linearGradient
       inkscape:collect="always"
       xlink:href="#linearGradient10576"
       id="linearGradient10582"
       x1="456.19424"
       y1="502.14188"
       x2="881.12811"
       y2="927.07574"
       gradientUnits="userSpaceOnUse" />
  </defs>
  <metadata
     id="metadata2998">
    <rdf:RDF>
      <cc:Work
         rdf:about="">
        <dc:format>image/svg+xml</dc:format>
        <dc:type
           rdf:resource="http://purl.org/dc/dcmitype/StillImage" />
        <dc:title />
      </cc:Work>
    </rdf:RDF>
  </metadata>
  <g
     inkscape:groupmode="layer"
     id="layer2"
     inkscape:label="Bottom wedge"
     style="display:inline"
     sodipodi:insensitive="true">
    <path
       style="fill:#d35400;fill-opacity:1;stroke:none"
       d="m 1000,0 0,1000 -1000,0 z"
       id="path3008"
       inkscape:connector-curvature="0"
       clip-path="url(#clipPath3931)" />
  </g>
  <g
     sodipodi:insensitive="true"
     style="display:inline"
     inkscape:label="Bottom Box"
     id="g3927"
     inkscape:groupmode="layer" />
  <g
     inkscape:label="Top wedge"
     inkscape:groupmode="layer"
     id="layer1"
     transform="translate(0,-52.362183)"
     style="display:inline"
     sodipodi:insensitive="true">
    <path
       sodipodi:type="arc"
       id="path3003"
       style="fill:#000000;stroke:none"
       sodipodi:cx="0"
       sodipodi:cy="52.362183"
       sodipodi:rx="1.5"
       sodipodi:ry="1.5"
       d="m 1.5,52.362183 a 1.5,1.5 0 1 1 -3,0 1.5,1.5 0 1 1 3,0 z" />
    <path
       style="fill:#e67e22;fill-opacity:1;stroke:none;display:inline"
       d="M 85.71875,0 C 38.233035,0 0,38.233035 0,85.71875 l 0,828.5625 c 0,23.74286 9.5696427,45.16339 25.0625,60.65625 L 974.9375,25.0625 C 959.44464,9.5696427 938.02411,0 914.28125,0 L 85.71875,0 z"
       transform="translate(0,52.362183)"
       id="path3005"
       inkscape:connector-curvature="0" />
  </g>
  <g
     sodipodi:insensitive="true"
     inkscape:groupmode="layer"
     id="layer3"
     inkscape:label="Top Box"
     style="display:inline" />
  <g
     sodipodi:insensitive="true"
     style="display:none"
     inkscape:label="Shadow-weird angle"
     id="g3997"
     inkscape:groupmode="layer">
    <path
       inkscape:connector-curvature="0"
       id="path4071"
       d="m 420,220 0,320 -80,0 0,240 c 39.1713,19.57966 79.99527,48.46181 118.4375,70.09375 46.20052,27.06817 91.62263,56.32183 139,82.28125 70.25884,42.75995 98.10338,59.80807 110.78125,67.625 l 206.0625,0 C 961.76696,1000 1000,961.76696 1000,914.28125 L 1000,840 l 0,-80 0,-80 0,-80 0,-127.53125 C 936.19601,434.57145 870.79392,395.71029 811.46875,360.0625 c -35.46531,-21.5479 -70.5554,-42.42471 -106.25,-63.75 C 670.66917,274.93134 614.77165,241.05575 580,220 l -135,0 -25,0 z"
       style="opacity:0.49212599;fill:url(#linearGradient4983);fill-opacity:1;fill-rule:evenodd;stroke:none" />
  </g>
  <g
     style="display:inline"
     inkscape:label="Shadow"
     id="g7975"
     inkscape:groupmode="layer">
    <path
       style="fill:url(#linearGradient10582);fill-opacity:1;fill-rule:evenodd;stroke:none;display:inline;opacity:0.75000000000000000"
       d="m 422,222 0,320 -80,0 0,240 c 73.89257,71.7197 145.6783,145.33951 218.78125,218 l 353.5,0 C 961.76696,1000 1000,961.76696 1000,914.28125 l 0,-273.9375 C 891.29152,532.12395 783.21938,423.74695 674.9375,316 642.94582,284.89296 612.76893,251.50373 579.3125,222 526.86981,221.999 474.44269,222.004 422,222 z"
       id="path8031"
       inkscape:connector-curvature="0" />
  </g>
  <g
     sodipodi:insensitive="true"
     inkscape:groupmode="layer"
     id="layer4"
     inkscape:label="Key"
     style="display:inline">
    <path
       id="path2989"
       style="fill:#ffffff;fill-opacity:1;fill-rule:evenodd;stroke:none"
       d="m 420,619.99992 0,80.00004 80.00004,0 80,0 0,-80.00004 z m -80,-80 0,240.00008 320,0 0,-240.00008 -79.99996,0 -80,0 0,-79.99996 80,0 0,-80 -80,0 0,-80.00004 80,0 0,-80 -160.00004,0 0,320 z"
       inkscape:connector-curvature="0" />
  </g>
</svg>
